<svg width="68" height="62" viewBox="0 0 68 62" fill="none" xmlns="http://www.w3.org/2000/svg">
<path fill-rule="evenodd" clip-rule="evenodd" d="M44.9186 9.23367C44.3348 9.71421 43.4727 9.63776 42.9872 9.04801C42.5016 8.45826 42.5834 7.60094 43.1727 7.11495L51.3947 0.316462C51.9785 -0.164074 52.8405 -0.087625 53.3261 0.496662C53.8062 1.08095 53.7298 1.94373 53.1406 2.42973L44.9186 9.23367ZM4.97589 33.1895C4.07021 33.457 3.40459 34.0468 2.96266 34.8276C2.45526 35.7286 2.22611 36.8918 2.24248 38.1368C2.24794 38.6719 2.3025 39.2235 2.39525 39.7804C2.488 40.3429 2.62985 40.9053 2.80444 41.4569C2.98448 42.0138 3.20272 42.5544 3.45915 43.0732C3.71012 43.5756 3.99383 44.0561 4.30481 44.493C5.06864 45.5578 6.01796 46.4042 7.1146 46.8301C8.06938 47.2069 9.1442 47.2615 10.3008 46.8629L10.3227 46.8574C10.4536 46.8137 10.5846 46.7973 10.7155 46.8083C10.8082 46.8137 10.901 46.8301 10.9937 46.8574L11.021 46.8465C11.332 46.7427 11.6539 46.6445 11.9704 46.5462L12.8378 46.2786C13.1543 46.1858 13.4544 46.0984 13.7381 46.0165C14.0163 45.9346 14.3 45.8581 14.5892 45.7817C14.8893 45.6998 15.1893 45.7489 15.4403 45.8909L15.4676 45.9073C15.7022 46.0492 15.8822 46.2786 15.9641 46.568C15.9804 46.6171 15.9859 46.6554 15.9914 46.6991C16.0677 47.0431 16.1605 47.398 16.226 47.742C16.8207 50.4068 17.399 52.9733 18.1683 55.0538C18.2337 55.2613 18.3156 55.4634 18.392 55.6709C18.6266 56.3261 18.8721 57.0033 19.1449 57.6203C19.4067 58.221 19.685 58.7561 20.0014 59.1493V59.1548C20.236 59.4496 20.5088 59.6353 20.8307 59.6517C21.1854 59.6681 21.6273 59.4988 22.1838 59.0674C22.4239 58.8435 22.6421 58.6524 22.8658 58.4613L22.9149 58.4176C23.5696 57.8497 24.2243 57.2872 24.508 56.5173C24.4644 56.4845 24.4153 56.4517 24.3607 56.4244C24.2352 56.3535 24.077 56.2825 23.9188 56.2169L23.9024 56.2115C23.3186 55.9657 22.7403 55.7146 22.3202 55.1903C21.8946 54.6607 21.6655 53.8907 21.8237 52.6348C21.8292 52.5583 21.8401 52.4928 21.851 52.4273C21.8619 52.3508 21.8728 52.2744 21.8783 52.1979C21.9492 51.63 21.9874 51.3351 21.9656 51.2532V51.2423C21.9492 51.2205 21.8346 51.1385 21.6055 50.9256C21.54 50.8655 21.4691 50.8055 21.4091 50.7399C21.0708 50.4232 20.8307 50.0464 20.678 49.6314C20.5088 49.1727 20.4434 48.6703 20.4488 48.1461C20.4543 47.6328 20.5307 47.0977 20.6452 46.5898C20.7871 45.9728 20.989 45.383 21.1908 44.897L21.2017 44.8807C21.2781 44.7005 21.3982 44.553 21.54 44.4438C21.6928 44.3237 21.8783 44.2472 22.0692 44.2199H22.0801C26.2103 43.6466 29.5438 43.723 32.3427 44.0834C34.8688 44.4111 36.9475 44.9626 38.797 45.4868C37.3839 43.8759 36.0854 41.9811 34.9124 39.917C33.4011 37.2522 32.1026 34.298 31.0551 31.3055C29.9967 28.2804 29.1946 25.2115 28.6927 22.3501C28.2726 19.9474 28.0598 17.6867 28.0871 15.7264C26.5103 17.9925 24.388 20.7447 21.2672 23.5187C17.7045 26.6804 12.8378 29.8694 5.98523 32.3922C5.9143 32.414 5.84338 32.4414 5.77245 32.4632L5.73971 32.5178C5.73971 32.5178 5.74517 32.5123 5.61968 32.7089L5.60877 32.7253C5.53785 32.8345 5.45055 32.9273 5.35234 33.0038C5.24323 33.0857 5.1232 33.1512 4.99226 33.1895H4.97589ZM36.1018 37.416C37.1275 39.3873 38.2623 41.222 39.4899 42.8111C40.6575 44.3182 41.9123 45.6124 43.2327 46.5898L43.3691 46.6008C43.4345 46.6062 43.5 46.6062 43.5546 46.6008H43.5764C43.6801 46.5953 43.7837 46.5789 43.8928 46.5462C43.9965 46.5134 44.1056 46.4643 44.2202 46.3987C44.4984 46.1148 44.7276 45.7434 44.9131 45.3066C45.1204 44.8261 45.2732 44.2582 45.3714 43.6247C45.6715 41.7517 45.5296 39.3545 45.0659 36.7061C44.5585 33.812 43.6582 30.6284 42.5234 27.5104C41.4104 24.447 40.0683 21.4546 38.6388 18.8662C37.2803 16.398 35.8454 14.3011 34.4596 12.865C33.9413 12.3244 33.4393 11.893 32.9647 11.5817C32.5227 11.2923 32.1135 11.1067 31.7371 11.0466H31.7262C31.6389 11.0302 31.568 11.0248 31.5134 11.0193C31.4916 11.0193 31.5134 11.0029 31.5025 11.0084C31.497 11.0084 31.497 11.0193 31.4697 11.0411C31.4206 11.0848 31.3497 11.1504 31.2679 11.2323C31.197 11.2978 31.126 11.3797 31.0606 11.4561L31.0387 11.4998C30.4058 12.8104 30.1876 14.8854 30.324 17.4137C30.4659 19.9802 30.9787 22.9999 31.8135 26.1343C34.1868 25.5883 36.0418 26.0906 37.3185 27.1555C38.0659 27.778 38.6061 28.5861 38.9389 29.4872C39.2662 30.3827 39.3863 31.3711 39.2881 32.3594C39.1026 34.3034 38.0605 36.2256 36.1018 37.416ZM43.0417 48.8232C42.9326 48.8396 42.8235 48.8396 42.7144 48.8232C42.6107 48.8069 42.507 48.7796 42.4088 48.7304C42.2615 48.7031 42.1142 48.6758 41.9724 48.643C40.9412 48.4301 39.9373 48.1407 38.857 47.8349L38.7861 47.813C35.0816 46.7591 30.4495 45.4377 23.0295 46.355C22.9313 46.639 22.8494 46.9448 22.784 47.2451C22.7185 47.5618 22.6803 47.8786 22.6748 48.168C22.6748 48.3973 22.6967 48.6103 22.7458 48.785C22.784 48.9161 22.844 49.0253 22.9258 49.1017L23.0567 49.2219C23.6624 49.7734 23.957 50.0464 24.1261 50.6689C24.2625 51.1713 24.2025 51.6355 24.0825 52.5529C24.0661 52.6784 24.0552 52.804 24.0334 52.9296C23.9788 53.3719 24.0497 53.6286 24.1807 53.787C24.3171 53.9508 24.5517 54.0545 24.7917 54.1528L24.819 54.1637C25.5828 54.4914 26.3467 54.8245 26.7395 55.9111C26.7831 56.0094 26.8104 56.1186 26.8213 56.2279C26.8322 56.3371 26.8322 56.4463 26.8104 56.561V56.5664C26.6413 57.4456 26.2812 58.1172 25.8283 58.6906C25.3864 59.253 24.8626 59.7008 24.3443 60.1486L24.2243 60.2523C24.0443 60.4052 23.8697 60.5581 23.7005 60.722L23.6132 60.7984C22.4293 61.7431 21.42 62.0817 20.5307 61.9888C19.6304 61.896 18.883 61.3609 18.2501 60.5636C17.8136 60.0175 17.4535 59.3459 17.1316 58.6305C16.8152 57.9207 16.5424 57.1726 16.2805 56.4463C16.2096 56.2442 16.1332 56.0422 16.0568 55.8402C15.2494 53.6614 14.6547 51.013 14.0436 48.2772C13.8472 48.3318 13.6508 48.3973 13.4544 48.4519C13.1488 48.5448 12.8488 48.6321 12.5596 48.725C12.265 48.8178 11.9758 48.9106 11.6921 48.998L11.6757 49.0034C11.6321 49.0144 11.5994 49.0307 11.5721 49.0417L11.5557 49.0471C11.3484 49.1345 11.1956 49.1946 11.021 49.2109C10.8628 49.2273 10.7155 49.2109 10.5409 49.1454C8.96415 49.5823 7.50743 49.4512 6.20892 48.927C4.73583 48.3263 3.47006 47.2069 2.46617 45.8035L2.45526 45.7926C2.0788 45.252 1.74054 44.6732 1.44046 44.0616C1.13493 43.4445 0.878505 42.8002 0.665725 42.1449C0.452945 41.4896 0.289268 40.818 0.18015 40.1463C0.0710317 39.4801 0.0110167 38.8139 0.000104938 38.1586C-0.0162628 36.5095 0.305636 34.9478 1.02036 33.6864C1.66416 32.556 2.62439 31.6714 3.92835 31.1799C3.97746 31.1035 4.01565 31.038 4.0593 30.9834C4.13022 30.8905 4.20661 30.8086 4.31027 30.7213L4.33209 30.7049C4.44121 30.612 4.54487 30.552 4.6649 30.4919C4.77402 30.4428 4.89951 30.3936 5.06864 30.3335L5.2214 30.2789C12.1559 27.7234 16.9516 24.4579 20.3943 21.2634C23.8369 18.069 25.932 14.9455 27.4433 12.6739L27.476 12.6247C28.3217 11.3579 29.0037 10.3476 29.6857 9.66506C29.8603 9.49032 30.013 9.34834 30.1767 9.22821C30.3458 9.10262 30.5204 9.00433 30.7223 8.92788C30.9351 8.85143 31.1424 8.80774 31.3661 8.79682C31.5843 8.7859 31.8189 8.80774 32.0917 8.85143C32.7355 8.95518 33.3902 9.22275 34.0504 9.63776C34.7215 10.0582 35.398 10.6316 36.0691 11.3306C37.564 12.8814 39.1026 15.1202 40.5484 17.7359C42.0542 20.4553 43.4618 23.5787 44.6185 26.7732C45.8079 30.0496 46.7463 33.4024 47.2755 36.4768C47.7611 39.3108 47.9029 41.9155 47.5647 43.996C47.4228 44.8697 47.1991 45.667 46.8881 46.355C46.5826 47.0322 46.1843 47.6164 45.6933 48.0915C45.6715 48.1134 45.6442 48.1352 45.6224 48.157C45.5896 48.1789 45.5569 48.2062 45.5242 48.228C45.2023 48.441 44.8913 48.5939 44.5803 48.6922C44.2638 48.7959 43.9474 48.8451 43.631 48.8615H43.6091C43.5 48.8615 43.3964 48.8615 43.2981 48.856C43.2218 48.8396 43.129 48.8342 43.0417 48.8232ZM56.4687 42.8548C55.7103 42.8875 55.0774 42.2978 55.0502 41.5388C55.0174 40.7797 55.6067 40.1463 56.365 40.119L65.9674 39.7586C66.7203 39.7368 67.3532 40.3265 67.386 41.0746C67.4132 41.8336 66.8295 42.4671 66.0711 42.4998L56.4687 42.8548ZM56.1959 33.5171C55.443 33.6154 54.7555 33.0857 54.6573 32.3431C54.5591 31.5895 55.0884 30.9015 55.8304 30.8032L64.7017 29.6237C65.4546 29.5254 66.142 30.0551 66.2402 30.7977C66.3384 31.5513 65.8092 32.2393 65.0672 32.3376L56.1959 33.5171ZM54.33 24.9439C53.6153 25.1896 52.8296 24.8129 52.5841 24.0975C52.3331 23.3822 52.715 22.5958 53.4298 22.3501L62.5247 19.1884C63.2395 18.9318 64.0251 19.3195 64.2706 20.0348C64.5216 20.7501 64.1397 21.5365 63.425 21.7822L54.33 24.9439ZM50.0416 16.6929C49.3869 17.0697 48.5467 16.8403 48.1757 16.1796C47.7993 15.5243 48.0284 14.6888 48.6886 14.3121L57.3089 9.36473C57.9636 8.98794 58.8038 9.21729 59.1748 9.87803C59.5513 10.5333 59.3221 11.3688 58.662 11.7456L50.0416 16.6929Z" fill="black"/>
<path fill-rule="evenodd" clip-rule="evenodd" d="M4.97592 33.1894C4.07024 33.457 3.40462 34.0467 2.9627 34.8276C2.4553 35.7286 2.22615 36.8917 2.24252 38.1367C2.24797 38.6719 2.30253 39.2234 2.39528 39.7804C2.48803 40.3428 2.62989 40.9053 2.80447 41.4568C2.98452 42.0138 3.20276 42.5544 3.45918 43.0732C3.71015 43.5755 3.99386 44.0561 4.30485 44.4929C5.06867 45.5577 6.018 46.4041 7.11464 46.8301C8.06942 47.2069 9.14423 47.2615 10.3009 46.8628L10.3227 46.8574C10.4536 46.8137 10.5846 46.7973 10.7155 46.8082C10.8083 46.8137 10.901 46.8301 10.9938 46.8574L11.0211 46.8464C11.3321 46.7427 11.6539 46.6444 11.9704 46.5461L12.8379 46.2785C13.1543 46.1857 13.4544 46.0983 13.7381 46.0164C14.0164 45.9345 14.3001 45.8581 14.5892 45.7816C14.8893 45.6997 15.1894 45.7489 15.4403 45.8908L15.4676 45.9072C15.7022 46.0492 15.8823 46.2785 15.9641 46.568C15.9805 46.6171 15.9859 46.6553 15.9914 46.699C16.0678 47.043 16.1605 47.398 16.226 47.742C16.8207 50.4068 17.399 52.9733 18.1683 55.0538C18.2338 55.2613 18.3156 55.4633 18.392 55.6708C18.6266 56.3261 18.8721 57.0032 19.1449 57.6203C19.4068 58.2209 19.685 58.7561 20.0015 59.1493V59.1547C20.2361 59.4496 20.5089 59.6352 20.8308 59.6516C21.1854 59.668 21.6273 59.4987 22.1838 59.0673C22.4239 58.8435 22.6421 58.6523 22.8658 58.4612L22.9149 58.4175C23.5696 57.8496 24.2243 57.2872 24.5081 56.5172C24.4644 56.4845 24.4153 56.4517 24.3607 56.4244C24.2353 56.3534 24.077 56.2824 23.9188 56.2169L23.9024 56.2114C23.3187 55.9657 22.7403 55.7145 22.3202 55.1903C21.8947 54.6606 21.6655 53.8907 21.8237 52.6347C21.8292 52.5583 21.8401 52.4927 21.851 52.4272C21.8619 52.3508 21.8729 52.2743 21.8783 52.1979C21.9492 51.63 21.9874 51.3351 21.9656 51.2532V51.2423C21.9492 51.2204 21.8347 51.1385 21.6055 50.9255C21.54 50.8655 21.4691 50.8054 21.4091 50.7399C21.0708 50.4232 20.8308 50.0464 20.678 49.6314C20.5089 49.1727 20.4434 48.6703 20.4489 48.1461C20.4543 47.6328 20.5307 47.0976 20.6453 46.5898C20.7871 45.9727 20.989 45.383 21.1909 44.897L21.2018 44.8806C21.2782 44.7004 21.3982 44.553 21.54 44.4438C21.6928 44.3236 21.8783 44.2472 22.0693 44.2199H22.0802C26.2103 43.6465 29.5439 43.723 32.3427 44.0834C34.8688 44.411 36.9475 44.9625 38.7971 45.4868C37.384 43.8759 36.0855 41.981 34.9125 39.9169C33.4012 37.2521 32.1027 34.2979 31.0551 31.3055C29.9967 28.2803 29.1947 25.2114 28.6927 22.3501C28.2726 19.9474 28.0598 17.6867 28.0871 15.7263C26.5104 17.9925 24.388 20.7446 21.2672 23.5186C17.7045 26.6803 12.8379 29.8693 5.98527 32.3922C5.91434 32.414 5.84341 32.4413 5.77249 32.4632L5.73975 32.5178C5.73975 32.5178 5.74521 32.5123 5.61972 32.7089L5.60881 32.7253C5.53788 32.8345 5.45059 32.9273 5.35238 33.0038C5.24326 33.0857 5.12323 33.1512 4.99229 33.1894H4.97592Z" fill="#33DD95"/>
</svg>
